<?xml version="1.0" encoding="UTF-8"?>
<!-- Do not edit this file with editors other than draw.io -->
<!DOCTYPE svg PUBLIC "-//W3C//DTD SVG 1.1//EN" "http://www.w3.org/Graphics/SVG/1.1/DTD/svg11.dtd">
<svg xmlns="http://www.w3.org/2000/svg" xmlns:xlink="http://www.w3.org/1999/xlink" version="1.1" width="322px"
    height="170px" viewBox="-0.5 -0.5 322 170"
    content="&lt;mxfile host=&quot;Electron&quot; modified=&quot;2024-03-13T20:26:51.833Z&quot; agent=&quot;Mozilla/5.0 (Windows NT 10.0; Win64; x64) AppleWebKit/537.36 (KHTML, like Gecko) draw.io/23.1.5 Chrome/120.0.6099.109 Electron/28.1.0 Safari/537.36&quot; version=&quot;23.1.5&quot; etag=&quot;PjArthBZgvxrIbn2ve3H&quot; type=&quot;device&quot; scale=&quot;1&quot; border=&quot;0&quot;&gt;&#10;  &lt;diagram name=&quot;Página-1&quot; id=&quot;OXkXwHpp--dTU81kb5XK&quot;&gt;&#10;    &lt;mxGraphModel dx=&quot;1418&quot; dy=&quot;828&quot; grid=&quot;1&quot; gridSize=&quot;10&quot; guides=&quot;1&quot; tooltips=&quot;1&quot; connect=&quot;1&quot; arrows=&quot;1&quot; fold=&quot;1&quot; page=&quot;1&quot; pageScale=&quot;1&quot; pageWidth=&quot;1169&quot; pageHeight=&quot;827&quot; math=&quot;0&quot; shadow=&quot;0&quot;&gt;&#10;      &lt;root&gt;&#10;        &lt;mxCell id=&quot;0&quot; /&gt;&#10;        &lt;mxCell id=&quot;1&quot; parent=&quot;0&quot; /&gt;&#10;        &lt;mxCell id=&quot;2&quot; style=&quot;edgeStyle=orthogonalEdgeStyle;rounded=1;orthogonalLoop=1;jettySize=auto;html=1;exitX=0.5;exitY=1;exitDx=0;exitDy=0;exitPerimeter=0;fontSize=11;&quot; edge=&quot;1&quot; source=&quot;5&quot; target=&quot;5&quot; parent=&quot;1&quot;&gt;&#10;          &lt;mxGeometry relative=&quot;1&quot; as=&quot;geometry&quot; /&gt;&#10;        &lt;/mxCell&gt;&#10;        &lt;object label=&quot;&quot; Name=&quot;ModemVivo&quot; id=&quot;3&quot;&gt;&#10;          &lt;mxCell style=&quot;fontColor=#0066CC;verticalAlign=top;verticalLabelPosition=bottom;labelPosition=center;align=center;html=1;outlineConnect=0;fillColor=#CCCCCC;strokeColor=#6881B3;gradientColor=default;gradientDirection=north;strokeWidth=2;shape=mxgraph.networks.modem;rounded=1;fontSize=11;&quot; vertex=&quot;1&quot; parent=&quot;1&quot;&gt;&#10;            &lt;mxGeometry x=&quot;300&quot; y=&quot;80&quot; width=&quot;100&quot; height=&quot;30&quot; as=&quot;geometry&quot; /&gt;&#10;          &lt;/mxCell&gt;&#10;        &lt;/object&gt;&#10;        &lt;object label=&quot;&quot; Name=&quot;ModemClaro&quot; id=&quot;4&quot;&gt;&#10;          &lt;mxCell style=&quot;fontColor=#0066CC;verticalAlign=top;verticalLabelPosition=bottom;labelPosition=center;align=center;html=1;outlineConnect=0;fillColor=#CCCCCC;strokeColor=#6881B3;gradientColor=default;gradientDirection=north;strokeWidth=2;shape=mxgraph.networks.modem;rounded=1;fontSize=11;&quot; vertex=&quot;1&quot; parent=&quot;1&quot;&gt;&#10;            &lt;mxGeometry x=&quot;80&quot; y=&quot;80&quot; width=&quot;100&quot; height=&quot;30&quot; as=&quot;geometry&quot; /&gt;&#10;          &lt;/mxCell&gt;&#10;        &lt;/object&gt;&#10;        &lt;object label=&quot;&quot; Name=&quot;RB3011&quot; id=&quot;5&quot;&gt;&#10;          &lt;mxCell style=&quot;verticalAlign=top;verticalLabelPosition=bottom;labelPosition=center;align=center;html=1;outlineConnect=0;fillColor=#CCCCCC;strokeColor=#6881B3;gradientColor=default;gradientDirection=north;strokeWidth=2;shape=mxgraph.networks.router;rounded=1;fontSize=11;&quot; vertex=&quot;1&quot; parent=&quot;1&quot;&gt;&#10;            &lt;mxGeometry x=&quot;190&quot; y=&quot;210&quot; width=&quot;100&quot; height=&quot;30&quot; as=&quot;geometry&quot; /&gt;&#10;          &lt;/mxCell&gt;&#10;        &lt;/object&gt;&#10;      &lt;/root&gt;&#10;    &lt;/mxGraphModel&gt;&#10;  &lt;/diagram&gt;&#10;&lt;/mxfile&gt;&#10;">
    <defs>
        <linearGradient x1="0%" y1="100%" x2="0%" y2="0%" id="mx-gradient-000000-1-cccccc-1-s-0">
            <stop offset="0%" style="stop-color: rgb(204, 204, 204); stop-opacity: 1;" />
            <stop offset="100%" style="stop-color: rgb(0, 0, 0); stop-opacity: 1;" />
        </linearGradient>
    </defs>
    <g>
        <rect x="221" y="1" width="100" height="25.86" rx="5.17" ry="5.17"
            fill="url(#mx-gradient-000000-1-cccccc-1-s-0)" stroke="#6881b3" stroke-width="2" pointer-events="all" />
        <rect x="231" y="26.86" width="80" height="4.14" fill="url(#mx-gradient-000000-1-cccccc-1-s-0)" stroke="#6881b3"
            stroke-width="2" pointer-events="all" />
        <ellipse cx="309" cy="13.93" rx="8" ry="8.275862068965518" fill="#ffffff" stroke="none" pointer-events="all" />
        <ellipse cx="231" cy="11.34" rx="2" ry="2.0689655172413794" fill="#ffffff" stroke="none" pointer-events="all" />
        <rect x="221" y="1" width="0" height="0" fill="none" stroke="#6881b3" stroke-width="2" pointer-events="all" />
        <path d="M 309 8.24 L 309 19.62" fill="url(#mx-gradient-000000-1-cccccc-1-s-0)" stroke="#6881b3"
            stroke-width="2" stroke-miterlimit="10" pointer-events="all" />
        <path d="M 307 10.31 L 309 8.24 L 311 10.31" fill="none" stroke="#6881b3" stroke-width="2"
            stroke-miterlimit="10" pointer-events="all" />
        <ellipse cx="241" cy="11.34" rx="2" ry="2.0689655172413794" fill="#ffffff" stroke="none" pointer-events="all" />
        <ellipse cx="251" cy="11.34" rx="2" ry="2.0689655172413794" fill="#ffffff" stroke="none" pointer-events="all" />
        <ellipse cx="261" cy="11.34" rx="2" ry="2.0689655172413794" fill="#ffffff" stroke="none" pointer-events="all" />
        <rect x="221" y="1" width="0" height="0" fill="none" stroke="#6881b3" stroke-width="2" pointer-events="all" />
        <path d="M 307 17.55 L 309 19.62 L 311 17.55" fill="none" stroke="#6881b3" stroke-width="2"
            stroke-miterlimit="10" pointer-events="all" />
        <rect x="1" y="1" width="100" height="25.86" rx="5.17" ry="5.17" fill="url(#mx-gradient-000000-1-cccccc-1-s-0)"
            stroke="#6881b3" stroke-width="2" pointer-events="all" />
        <rect x="11" y="26.86" width="80" height="4.14" fill="url(#mx-gradient-000000-1-cccccc-1-s-0)" stroke="#6881b3"
            stroke-width="2" pointer-events="all" />
        <ellipse cx="89" cy="13.93" rx="8" ry="8.275862068965518" fill="#ffffff" stroke="none" pointer-events="all" />
        <ellipse cx="11" cy="11.34" rx="2" ry="2.0689655172413794" fill="#ffffff" stroke="none" pointer-events="all" />
        <rect x="1" y="1" width="0" height="0" fill="none" stroke="#6881b3" stroke-width="2" pointer-events="all" />
        <path d="M 89 8.24 L 89 19.62" fill="url(#mx-gradient-000000-1-cccccc-1-s-0)" stroke="#6881b3" stroke-width="2"
            stroke-miterlimit="10" pointer-events="all" />
        <path d="M 87 10.31 L 89 8.24 L 91 10.31" fill="none" stroke="#6881b3" stroke-width="2" stroke-miterlimit="10"
            pointer-events="all" />
        <ellipse cx="21" cy="11.34" rx="2" ry="2.0689655172413794" fill="#ffffff" stroke="none" pointer-events="all" />
        <ellipse cx="31" cy="11.34" rx="2" ry="2.0689655172413794" fill="#ffffff" stroke="none" pointer-events="all" />
        <ellipse cx="41" cy="11.34" rx="2" ry="2.0689655172413794" fill="#ffffff" stroke="none" pointer-events="all" />
        <rect x="1" y="1" width="0" height="0" fill="none" stroke="#6881b3" stroke-width="2" pointer-events="all" />
        <path d="M 87 17.55 L 89 19.62 L 91 17.55" fill="none" stroke="#6881b3" stroke-width="2" stroke-miterlimit="10"
            pointer-events="all" />
        <rect x="111" y="131" width="100" height="25.86" rx="5.17" ry="5.17"
            fill="url(#mx-gradient-000000-1-cccccc-1-s-0)" stroke="#6881b3" stroke-width="2" pointer-events="all" />
        <rect x="121" y="156.86" width="80" height="4.14" fill="url(#mx-gradient-000000-1-cccccc-1-s-0)"
            stroke="#6881b3" stroke-width="2" pointer-events="all" />
        <path
            d="M 114 138.24 L 120 138.24 L 120 141.34 L 118 141.34 L 118 142.38 L 116 142.38 L 116 141.34 L 114 141.34 Z M 122.5 138.24 L 128.5 138.24 L 128.5 141.34 L 126.5 141.34 L 126.5 142.38 L 124.5 142.38 L 124.5 141.34 L 122.5 141.34 Z M 131 138.24 L 137 138.24 L 137 141.34 L 135 141.34 L 135 142.38 L 133 142.38 L 133 141.34 L 131 141.34 Z M 139.5 138.24 L 145.5 138.24 L 145.5 141.34 L 143.5 141.34 L 143.5 142.38 L 141.5 142.38 L 141.5 141.34 L 139.5 141.34 Z M 148 138.24 L 154 138.24 L 154 141.34 L 152 141.34 L 152 142.38 L 150 142.38 L 150 141.34 L 148 141.34 Z M 156.5 138.24 L 162.5 138.24 L 162.5 141.34 L 160.5 141.34 L 160.5 142.38 L 158.5 142.38 L 158.5 141.34 L 156.5 141.34 Z M 165 138.24 L 171 138.24 L 171 141.34 L 169 141.34 L 169 142.38 L 167 142.38 L 167 141.34 L 165 141.34 Z M 173.5 138.24 L 179.5 138.24 L 179.5 141.34 L 177.5 141.34 L 177.5 142.38 L 175.5 142.38 L 175.5 141.34 L 173.5 141.34 Z"
            fill="#ffffff" stroke="none" pointer-events="all" />
        <ellipse cx="199" cy="143.93" rx="8" ry="8.275862068965518" fill="#ffffff" stroke="none" pointer-events="all" />
        <ellipse cx="186" cy="136.17" rx="2" ry="2.0689655172413794" fill="#ffffff" stroke="none"
            pointer-events="all" />
        <ellipse cx="186" cy="151.69" rx="2" ry="2.0689655172413794" fill="#ffffff" stroke="none"
            pointer-events="all" />
        <ellipse cx="186" cy="143.93" rx="2" ry="2.0689655172413794" fill="#ffffff" stroke="none"
            pointer-events="all" />
        <ellipse cx="176.5" cy="148.59" rx="2" ry="2.0689655172413794" fill="#ffffff" stroke="none"
            pointer-events="all" />
        <ellipse cx="168" cy="148.59" rx="2" ry="2.0689655172413794" fill="#ffffff" stroke="none"
            pointer-events="all" />
        <ellipse cx="159.5" cy="148.59" rx="2" ry="2.0689655172413794" fill="#ffffff" stroke="none"
            pointer-events="all" />
        <ellipse cx="151" cy="148.59" rx="2" ry="2.0689655172413794" fill="#ffffff" stroke="none"
            pointer-events="all" />
        <ellipse cx="142.5" cy="148.59" rx="2" ry="2.0689655172413794" fill="#ffffff" stroke="none"
            pointer-events="all" />
        <ellipse cx="134" cy="148.59" rx="2" ry="2.0689655172413794" fill="#ffffff" stroke="none"
            pointer-events="all" />
        <ellipse cx="125.5" cy="148.59" rx="2" ry="2.0689655172413794" fill="#ffffff" stroke="none"
            pointer-events="all" />
        <ellipse cx="117" cy="148.59" rx="2" ry="2.0689655172413794" fill="#ffffff" stroke="none"
            pointer-events="all" />
        <path
            d="M 199 138.24 L 199 149.62 M 192.5 143.93 L 196.5 143.93 M 201.5 143.93 L 205.5 143.93 M 197 140.31 L 199 138.24 L 201 140.31 M 197 147.55 L 199 149.62 L 201 147.55 M 194.5 141.86 L 196.5 143.93 L 194.5 146 M 203.5 141.86 L 201.5 143.93 L 203.5 146"
            fill="none" stroke="#6881b3" stroke-miterlimit="10" pointer-events="all" />
    </g>
</svg>
